<svg width="174" height="101" viewBox="0 0 174 101" fill="none" xmlns="http://www.w3.org/2000/svg">
<path d="M47.0225 62.5405H60.5148L87.2497 88.9046L114.234 62.5405H126.71L87.3746 100.78L47.0225 62.5405Z" fill="#BCA15F"/>
<path d="M47.0225 38.2399H60.5148L87.2497 11.8759L114.234 38.2399H126.71L87.3746 0L47.0225 38.2399Z" fill="#4A6741"/>
<path d="M0 55.3452H19.5384V50.8028H2.72432C2.34533 50.8028 1.98416 50.7404 1.64975 50.6115C1.31534 50.4867 1.02552 50.3078 0.780289 50.079C0.535055 49.8503 0.343328 49.5882 0.209564 49.2929C0.0713413 48.9975 0.0044589 48.6814 0.0044589 48.3403V43.0866C0.0044589 42.7164 0.0757995 42.3753 0.22294 42.0716C0.37008 41.768 0.561809 41.5059 0.807042 41.2855C1.05228 41.065 1.33318 40.8945 1.64975 40.778C1.96633 40.6615 2.29628 40.5991 2.64407 40.5991H20.7958V43.6191H3.37531V47.7829H20.1939C20.5729 47.7829 20.9296 47.8494 21.2551 47.9867C21.5806 48.124 21.8659 48.2987 22.1112 48.5192C22.3564 48.7396 22.5526 49.0017 22.6953 49.3053C22.8424 49.609 22.9137 49.9251 22.9137 50.2454V55.8818C22.9137 56.6097 22.6507 57.2046 22.1245 57.6705C21.5984 58.1363 20.9742 58.3693 20.2474 58.3693H0V55.3452Z" fill="#405A37"/>
<path d="M25.3661 45.9268H28.6567V55.4233H37.8552V45.9268H41.1502V56.5131C41.1502 57.0206 40.9585 57.4574 40.5795 57.8193C40.2005 58.1853 39.7279 58.3642 39.1661 58.3642H27.3503C26.7884 58.3642 26.3158 58.1812 25.9368 57.8193C25.5578 57.4574 25.3661 57.0206 25.3661 56.5131V45.9268Z" fill="#405A37"/>
<path d="M44.0038 47.7778C44.0038 47.2537 44.1956 46.8128 44.5746 46.4592C44.9536 46.1056 45.4173 45.9268 45.9613 45.9268H55.4852V48.8718H47.2944V58.3684H44.0038V47.7778Z" fill="#405A37"/>
<path d="M57.5319 47.7529C57.5319 47.2287 57.7325 46.792 58.1293 46.4467C58.5262 46.1015 58.9988 45.9268 59.5428 45.9268H71.8981C72.4421 45.9268 72.9102 46.1056 73.2982 46.4592C73.6861 46.8128 73.8823 47.2537 73.8823 47.7778V51.7877C73.8823 52.3119 73.6861 52.7528 73.2982 53.1064C72.9058 53.4599 72.4421 53.6388 71.8981 53.6388H60.8225V55.8226H73.7217V58.36H59.516C58.9721 58.36 58.5039 58.1812 58.116 57.8276C57.7236 57.474 57.5319 57.0331 57.5319 56.509V47.7529ZM70.5917 51.1555V48.4142H60.8225V51.1555H70.5917Z" fill="#405A37"/>
<path d="M76.2008 43.1067C76.2008 42.7531 76.2721 42.4203 76.4193 42.1167C76.5664 41.813 76.7537 41.5468 76.99 41.318C77.2263 41.0892 77.5028 40.9104 77.8193 40.7856C78.1359 40.6566 78.4748 40.5942 78.8404 40.5942H97.3979V43.6142H79.5717V55.3445H97.3979V58.3644H78.9474C78.5684 58.3644 78.2073 58.2978 77.8729 58.1606C77.5384 58.0233 77.2486 57.8486 77.0034 57.6281C76.7581 57.4077 76.562 57.1498 76.4193 56.8544C76.2721 56.5591 76.2008 56.243 76.2008 55.9019V43.1067Z" fill="#BCA15F"/>
<path d="M100.39 40.5942H103.68V58.3644H100.39V40.5942Z" fill="#BCA15F"/>
<path d="M106.677 52.4491C106.677 51.925 106.873 51.4883 107.261 51.143C107.649 50.7977 108.117 50.623 108.661 50.623H119.411V48.4142H108.661V45.9268H120.744C121.288 45.9268 121.752 46.1056 122.131 46.4592C122.514 46.8128 122.702 47.2537 122.702 47.7778V56.5381C122.702 57.0456 122.505 57.4782 122.117 57.8318C121.725 58.1853 121.261 58.3642 120.717 58.3642H108.661C108.117 58.3642 107.649 58.1895 107.261 57.8442C106.868 57.499 106.677 57.0622 106.677 56.5381V52.4491ZM119.415 55.8767V53.1105H109.972V55.8767H119.415Z" fill="#BCA15F"/>
<path d="M127.767 48.8719H124.882V45.9269H129.1C129.644 45.9269 130.108 46.1058 130.487 46.4593C130.866 46.8129 131.057 47.2538 131.057 47.778V58.3643H127.767V48.8719ZM127.495 40.9478H130.785V44.0966H127.495V40.9478Z" fill="#BCA15F"/>
<path d="M133.92 47.7778C133.92 47.2703 134.107 46.8336 134.477 46.4717C134.847 46.1098 135.315 45.9268 135.877 45.9268H153.539C154.1 45.9268 154.569 46.1098 154.939 46.4717C155.309 46.8377 155.496 47.2703 155.496 47.7778V58.3642H152.205V48.8677H146.355V58.3642H143.06V48.8677H137.21V58.3642H133.92V47.7778Z" fill="#BCA15F"/>
<path d="M158.274 55.8769H170.709V53.1357H159.933C159.389 53.1357 158.92 52.9568 158.532 52.6033C158.14 52.2497 157.948 51.8088 157.948 51.2847V47.7573C157.948 47.2331 158.145 46.7964 158.532 46.4511C158.92 46.1059 159.389 45.9312 159.933 45.9312H173.104V48.4186H161.239V50.6524H172.016C172.56 50.6524 173.028 50.8313 173.416 51.1848C173.804 51.5384 174 51.9793 174 52.5034V56.5134C174 57.0375 173.804 57.4784 173.416 57.832C173.028 58.1856 172.56 58.3644 172.016 58.3644H158.274V55.8769Z" fill="#BCA15F"/>
<path d="M87.3745 0L87.2496 11.8759L114.234 38.2399H126.71L87.3745 0Z" fill="#3F5A36"/>
<path d="M47.0225 62.5405H60.5148L87.2497 88.9046L87.3745 100.78L47.0225 62.5405Z" fill="#DFBB75"/>
</svg>
