<svg width="8" height="13" viewBox="0 0 8 13" fill="none" xmlns="http://www.w3.org/2000/svg">
<path d="M7.44822 5.67857L2.44822 0.726802C2.35498 0.634463 2.24429 0.561215 2.12247 0.511242C2.00065 0.461268 1.87008 0.435547 1.73822 0.435547C1.47192 0.435547 1.21652 0.540314 1.02822 0.726802C0.934982 0.819141 0.861021 0.928763 0.81056 1.04941C0.7601 1.17006 0.734129 1.29937 0.734129 1.42995C0.734129 1.69369 0.839916 1.94662 1.02822 2.1331L5.32822 6.38172L1.02822 10.6303C0.934492 10.7224 0.860098 10.8319 0.809329 10.9526C0.75856 11.0733 0.732422 11.2028 0.732422 11.3335C0.732422 11.4642 0.75856 11.5937 0.809329 11.7144C0.860098 11.835 0.934492 11.9446 1.02822 12.0366C1.12118 12.1295 1.23178 12.2031 1.35364 12.2534C1.4755 12.3037 1.60621 12.3296 1.73822 12.3296C1.87023 12.3296 2.00094 12.3037 2.1228 12.2534C2.24466 12.2031 2.35526 12.1295 2.44822 12.0366L7.44822 7.08487C7.54195 6.99281 7.61634 6.88327 7.66711 6.76259C7.71788 6.6419 7.74402 6.51246 7.74402 6.38172C7.74402 6.25098 7.71788 6.12154 7.66711 6.00085C7.61634 5.88017 7.54195 5.77064 7.44822 5.67857Z" fill="#3F5A36"/>
</svg>
